<svg width="368" height="500" viewBox="0 0 368 500" fill="white" xmlns="http://www.w3.org/2000/svg">
<path d="M318.688 283.071C323.888 270.271 316.521 267.738 312.188 268.071C432.688 -12.9287 322.188 -22.4286 291.688 19.0708C263.288 -20.1292 236.188 10.0709 226.188 30.071C193.788 -2.72903 172.021 31.071 165.188 52.0711C129.188 27.6711 116.855 64.5709 115.188 86.0708C73.5879 71.6708 69.8545 106.738 73.1879 126.071C32.7879 120.471 35.3545 154.404 41.6879 172.071C3.28786 176.471 14.0212 207.571 24.1879 222.571C-11.0121 232.171 3.1879 259.904 14.6879 272.571C-13.7121 292.971 5.52129 313.404 18.688 321.071C-5.71203 341.071 16.8547 359.071 31.188 365.571C13.9881 391.971 38.3547 402.238 52.688 404.071C41.488 432.871 65.688 438.071 79.188 437.071C76.388 464.271 100.021 465.071 112.188 462.071C113.388 487.671 136.021 484.071 147.188 479.071C155.588 503.071 175.355 494.071 184.188 486.571C200.188 509.371 214.188 496.071 219.188 486.571C237.188 502.971 249.355 488.404 253.188 479.071C272.388 491.471 280.521 475.571 282.188 466.071C304.588 474.871 307.855 455.738 306.688 445.071C327.488 454.271 328.021 433.904 325.688 422.571C344.088 425.371 343.021 408.071 340.188 399.071C357.388 395.871 352.021 380.404 347.188 373.071C362.788 364.671 353.688 353.238 347.188 348.571C361.588 339.771 350.855 327.571 343.688 322.571C355.288 309.371 341.188 302.738 332.688 301.071C343.888 287.471 328.021 283.404 318.688 283.071Z" fill="black"/>
</svg>
